<?xml version="1.0" encoding="utf-8"?>
<!-- Svg Vector Icons : http://www.onlinewebfonts.com/icon -->
<!DOCTYPE svg PUBLIC "-//W3C//DTD SVG 1.1//EN" "http://www.w3.org/Graphics/SVG/1.1/DTD/svg11.dtd">
<svg version="1.1" xmlns="http://www.w3.org/2000/svg" xmlns:xlink="http://www.w3.org/1999/xlink" x="0px" y="0px" viewBox="0 0 1000 1000" enable-background="new 0 0 1000 1000" xml:space="preserve">
<metadata> Svg Vector Icons : http://www.onlinewebfonts.com/icon </metadata>
<g><g transform="translate(0.000000,511.000000) scale(0.100000,-0.100000)"><path d="M5182.1,4994.6c-1071.6-102.8-2075.9-707.8-2686.9-1617.3c-462.6-688-676.2-1484.8-612.9-2277.6l23.7-288.7L1380.2-132c-290.6-518-523.9-949-518-955c7.9-5.9,268.9-85,581.3-174l569.4-162.1l5.9-972.7l4-970.8h790.8h790.8v-711.7V-4790h158.2h158.2v869.9v869.9h-790.8H2339v929.2v927.3l-73.2,21.7c-458.7,126.5-945,276.8-941.1,292.6c2,9.9,207.6,383.6,456.7,828.4l454.7,810.6l-29.7,215.5c-37.6,284.7-23.7,713.7,33.6,1006.3c375.6,1903.9,2232.1,3084.3,4104.4,2609.8c1312.8-332.1,2269.7-1417.6,2449.6-2773.9c33.6-253.1,39.5-1170.4,9.9-1437.3c-65.2-557.6-259-1134.9-533.8-1581.7c-239.2-391.5-620.8-808.6-984.6-1077.5l-201.7-148.3v-1180.3V-4790h158.2h158.2v1103.2v1101.2l142.4,108.7c185.8,142.4,510.1,462.7,668.3,662.3c460.7,583.3,763.2,1269.3,879.8,1996.9c43.5,268.9,63.3,1190.2,31.6,1504.6c-71.2,699.9-310.4,1314.8-725.6,1866.4C7641.6,4557.7,6402,5111.3,5182.1,4994.6z"/><path d="M5219.7,4144.5l-429-257l49.4-83c29.7-45.5,61.3-102.8,73.2-126.5c11.9-25.7,29.7-45.5,39.5-45.5c9.9,0,138.4,71.2,284.7,156.2l264.9,158.2v-494.3v-492.3h-393.4h-393.4l-7.9,233.3c-7.9,217.5-11.9,239.2-75.1,355.9c-75.1,140.4-152.2,217.5-302.5,294.6c-94.9,51.4-120.6,55.4-330.2,55.4c-221.4,0-231.3-2-351.9-67.2c-140.4-77.1-217.5-156.2-294.6-304.5c-43.5-85-53.4-128.5-53.4-251.1c0-130.5,7.9-162.1,65.2-272.8c77.1-140.4,156.2-217.5,304.5-294.6c96.9-49.4,122.6-53.4,413.2-61.3l310.4-7.9l5.9-705.8l5.9-703.8l53.4-102.8c79.1-150.2,156.2-227.4,296.6-304.5c124.6-67.2,124.6-67.2,436.9-73.2l314.4-7.9l-7.9-223.4c-5.9-251.1-29.7-306.5-156.2-369.7c-61.3-31.6-142.3-35.6-822.5-35.6h-755.2l-5.9,786.9l-5.9,784.9l-67.2,124.6c-77.1,140.4-156.2,217.5-304.5,294.6c-85,43.5-128.5,53.4-251.1,53.4s-166.1-9.9-251.1-53.4c-148.3-77.1-227.4-154.2-304.5-294.6l-67.2-124.6V983.1V281.3l53.4-102.8c79.1-150.3,156.2-227.4,296.6-302.5c116.7-63.3,138.4-67.2,353.9-75.1l231.3-7.9l7.9-231.3c5.9-215.5,9.9-237.2,73.1-353.9c77.1-140.4,154.2-217.5,304.5-296.6l102.8-53.4h1809h1809l102.8,53.4c150.3,79.1,227.4,156.2,304.5,296.6l67.2,124.6V-45v622.8l-53.4,102.8c-79.1,150.3-156.2,227.4-296.6,304.5c-124.6,67.2-124.6,67.2-435,73.1l-312.4,7.9v199.7c0,225.4,27.7,306.4,124.6,377.6c49.4,35.6,94.9,43.5,355.9,53.4c292.6,9.9,302.5,11.9,425.1,77.1c140.4,75.1,217.5,154.2,294.6,302.5c43.5,85,53.4,128.5,53.4,251.1c0,130.5-7.9,162.1-65.3,272.8c-77.1,140.4-154.2,217.5-304.5,296.6l-102.8,53.4l-943.1,5.9l-945,5.9v492.3v492.3l274.8-166.1l276.8-166.1l53.4,92.9c29.7,51.4,67.2,112.7,81.1,136.4c27.7,41.5,15.8,49.4-385.5,290.6c-227.4,136.4-427.1,253.1-440.9,259C5662.5,4399.5,5456.9,4286.8,5219.7,4144.5z M4270.7,3541.5c96.9-71.2,124.6-152.2,124.6-377.6v-203.6h-280.7c-312.4,0-381.6,19.8-458.7,124.6c-31.6,43.5-41.5,85-41.5,191.8c0,154.2,35.6,223.4,150.3,282.7C3863.4,3610.7,4191.6,3600.8,4270.7,3541.5z M5502.4,1851v-790.8l-304.5,5.9c-272.8,5.9-312.4,9.9-361.8,47.5c-122.6,89-124.6,108.7-124.6,854.1v676.2H5107h395.4V1851z M7714.8,2608.3c102.8-51.4,146.3-124.6,154.2-255.1c9.9-132.5-29.7-225.4-118.6-290.6c-49.4-35.6-94.9-43.5-355.9-53.4c-348-11.9-433-41.5-587.2-195.7c-146.3-146.3-183.9-247.1-193.8-518l-7.9-233.3h-393.4h-393.4V1853v790.8h915.4C7564.5,2643.9,7653.5,2639.9,7714.8,2608.3z M3323.6,1801.6c120.6-90.9,122.6-100.8,122.6-933.2V109.2l-225.4,7.9c-253.1,5.9-308.4,29.7-373.7,156.2c-31.6,61.3-33.6,128.5-29.7,733.5c5.9,636.6,7.9,668.3,47.5,721.6c21.7,29.7,71.2,71.2,108.7,90.9C3062.7,1866.9,3246.5,1857,3323.6,1801.6z M6609.6-45v-790.8H5300.7c-1208,0-1316.7,2-1378,35.6c-126.5,63.3-150.3,118.6-156.2,369.7l-7.9,225.4l788.9,5.9l786.9,5.9l124.6,67.2c140.4,77.1,217.5,156.2,294.6,304.5c47.4,90.9,55.4,130.5,61.3,336.1l7.9,231.3h393.4h393.4V-45z M7592.2,694.5c118.6-87,124.6-120.6,124.6-739.4c0-618.8-5.9-652.4-124.6-739.4c-49.4-37.6-89-41.5-361.8-47.5l-304.5-5.9V-45v792.8l304.5-5.9C7503.2,736,7542.7,732,7592.2,694.5z"/></g></g>
</svg>