<svg width="60" height="57" viewBox="0 0 60 57" fill="none" xmlns="http://www.w3.org/2000/svg">
<g id="Susasthya-Logo">
<rect width="60" height="57" fill="white"/>
<g id="logo">
<g id="Vector-yellow">
<path id="Vector 5" d="M34.4784 37.2647C26.5027 40.283 18.7559 31.9591 25.8508 24.7971C24.9399 24.8896 24.963 25.1173 23.6661 25.9392C23.2338 26.2131 22.3923 26.9887 21.9831 27.4904C21.5739 27.992 21.1413 28.7517 20.8018 29.4508C20.4198 30.2371 19.6726 31.4364 17.8047 31.1659L14.9797 30.5324C12.2008 30.3544 10.8808 30.9485 9.65327 32.4535C9.24402 32.9552 11.7455 30.4006 17.2637 34.9017C21.277 38.1753 27.832 39.78 34.4784 37.2647Z" fill="#FFF100"/>
<path id="Ellipse 3" d="M20.4921 28.1772C20.4921 29.4413 19.4674 30.4661 18.2033 30.4661C16.9392 30.4661 15.9144 29.4413 15.9144 28.1772C15.9144 26.9131 16.9392 25.8884 18.2033 25.8884C19.4674 25.8884 20.4921 26.9131 20.4921 28.1772Z" fill="black"/>
</g>
<g id="Vector-red">
<path id="Vector 5_2" d="M36.1926 21.1367C42.8957 26.4084 39.7675 37.3407 29.9706 34.963C30.5201 35.6952 30.7032 35.5579 32.0767 36.2442C32.5345 36.4729 33.6333 36.7931 34.2742 36.8845C34.9151 36.9758 35.789 36.954 36.563 36.8838C37.4336 36.8049 38.8464 36.8256 39.5793 38.5649L40.4956 41.3112C41.778 43.7829 42.9684 44.6065 44.8911 44.8807C45.532 44.9721 42.0527 44.149 43.0579 37.0991C43.789 31.9719 41.7786 25.5298 36.1926 21.1367Z" fill="#C51015"/>
<path id="Ellipse 3_2" d="M35.6323 37.8066C36.7149 37.1539 38.1216 37.5023 38.7743 38.5849C39.427 39.6674 39.0786 41.0741 37.9961 41.7268C36.9135 42.3796 35.5068 42.0311 34.8541 40.9486C34.2014 39.8661 34.5498 38.4594 35.6323 37.8066Z" fill="black"/>
</g>
<g id="Vector-blue">
<path id="Vector 5_3" d="M20.9737 27.301C21.7124 18.8053 32.5723 15.4342 35.9493 24.933C36.261 24.0721 36.0458 23.9942 35.8676 22.4692C35.8082 21.9608 35.4742 20.8662 35.1996 20.28C34.925 19.6937 34.428 18.9745 33.9453 18.3654C33.4024 17.6803 32.6458 16.4869 33.6995 14.9211L35.4953 12.6501C36.8607 10.2233 36.8977 8.77624 36.0739 7.01748C35.7993 6.43118 37.0165 9.79293 30.5677 12.8136C25.8777 15.0105 21.5893 20.2212 20.9737 27.301Z" fill="#0081D5"/>
<path id="Ellipse 3_3" d="M35.2271 18.6386C34.0881 18.0904 33.609 16.7227 34.1572 15.5836C34.7053 14.4445 36.0731 13.9655 37.2121 14.5137C38.3512 15.0618 38.8302 16.4296 38.2821 17.5686C37.7339 18.7077 36.3662 19.1867 35.2271 18.6386Z" fill="black"/>
</g>
<path id="Susasthya" d="M17.4478 44.1221C17.2017 43.9902 16.9805 43.9243 16.7842 43.9243C16.5879 43.9243 16.4194 43.9946 16.2788 44.1353C16.1411 44.2759 16.0723 44.4458 16.0723 44.645C16.0723 44.7856 16.1133 44.9365 16.1953 45.0977C16.2773 45.2559 16.4634 45.5107 16.7534 45.8623C17.0464 46.2109 17.269 46.5142 17.4214 46.772C17.5767 47.0298 17.6543 47.3257 17.6543 47.6597C17.6543 48.0757 17.5283 48.4141 17.2764 48.6748C17.0273 48.9326 16.7007 49.0615 16.2964 49.0615C16.0737 49.0615 15.8013 48.9956 15.479 48.8638V48.1914C15.4878 48.1943 15.4966 48.1987 15.5054 48.2046C15.5493 48.2368 15.6416 48.2866 15.7822 48.354C15.9229 48.4185 16.0605 48.4507 16.1953 48.4507C16.415 48.4507 16.5952 48.3774 16.7358 48.231C16.8794 48.0845 16.9512 47.897 16.9512 47.6685C16.9512 47.5103 16.9146 47.3638 16.8413 47.229C16.771 47.0942 16.6406 46.9111 16.4502 46.6797L15.9448 46.0601C15.7485 45.8198 15.6035 45.6001 15.5098 45.4009C15.416 45.2017 15.3691 44.9644 15.3691 44.689C15.3691 44.2817 15.4878 43.9507 15.7251 43.6958C15.9624 43.4409 16.27 43.3135 16.6479 43.3135C16.9116 43.3135 17.1782 43.3794 17.4478 43.5112V44.1221ZM20.77 47.7871C20.77 48.2354 20.6807 48.5591 20.502 48.7583C20.3232 48.9546 20.0288 49.0527 19.6187 49.0527C19.2085 49.0527 18.9111 48.9561 18.7266 48.7627C18.542 48.5664 18.4497 48.2529 18.4497 47.8223V45.146H19.1616V47.8311C19.1616 48.2559 19.314 48.4683 19.6187 48.4683C19.7798 48.4683 19.8926 48.4141 19.957 48.3057C20.0244 48.1973 20.0581 48.0171 20.0581 47.7651V45.146H20.77V47.7871ZM23.5649 45.814C23.3452 45.7231 23.1562 45.6777 22.998 45.6777C22.8457 45.6777 22.7227 45.7158 22.6289 45.792C22.5381 45.8682 22.4927 45.9722 22.4927 46.104C22.4927 46.2095 22.5308 46.3135 22.6069 46.416C22.686 46.5186 22.8457 46.6753 23.0859 46.8862C23.3291 47.0942 23.5005 47.2817 23.6001 47.4487C23.7026 47.6128 23.7539 47.7944 23.7539 47.9937C23.7539 48.2954 23.6514 48.5459 23.4463 48.7451C23.2412 48.9443 22.9805 49.0439 22.6641 49.0439C22.459 49.0439 22.2188 48.9897 21.9434 48.8813V48.2881C22.21 48.3965 22.4355 48.4507 22.6201 48.4507C22.7578 48.4507 22.8647 48.4141 22.9409 48.3408C23.02 48.2646 23.0596 48.1636 23.0596 48.0376C23.0596 47.9204 23.0083 47.7959 22.9058 47.6641C22.8032 47.5322 22.6245 47.3638 22.3696 47.1587C22.0034 46.8628 21.8203 46.5229 21.8203 46.1392C21.8203 45.8374 21.9199 45.5869 22.1191 45.3877C22.3213 45.1855 22.5718 45.0845 22.8706 45.0845C23.0552 45.0845 23.2866 45.1328 23.5649 45.2295V45.814ZM26.9224 49H26.2061V48.5342H26.1841C25.9995 48.8799 25.7607 49.0527 25.4678 49.0527C25.2188 49.0527 24.999 48.937 24.8086 48.7056C24.6182 48.4712 24.5229 47.9482 24.5229 47.1367C24.5229 46.416 24.5947 45.8975 24.7383 45.5811C24.8818 45.2617 25.1279 45.1021 25.4766 45.1021C25.6406 45.1021 25.7725 45.1401 25.8721 45.2163C25.9746 45.2925 26.0786 45.4141 26.1841 45.5811H26.2061V45.1592H26.9224V49ZM25.7446 48.4243C25.9292 48.4243 26.0522 48.3145 26.1138 48.0947C26.1753 47.875 26.2061 47.5015 26.2061 46.9741C26.2061 46.5112 26.1782 46.186 26.1226 45.9985C26.0669 45.8081 25.9497 45.7129 25.771 45.7129C25.5923 45.7129 25.4678 45.8008 25.3975 45.9766C25.3301 46.1523 25.2964 46.4702 25.2964 46.9302C25.2964 47.4722 25.3228 47.8574 25.3755 48.0859C25.4312 48.3115 25.5542 48.4243 25.7446 48.4243ZM29.6997 45.814C29.48 45.7231 29.291 45.6777 29.1328 45.6777C28.9805 45.6777 28.8574 45.7158 28.7637 45.792C28.6729 45.8682 28.6274 45.9722 28.6274 46.104C28.6274 46.2095 28.6655 46.3135 28.7417 46.416C28.8208 46.5186 28.9805 46.6753 29.2207 46.8862C29.4639 47.0942 29.6353 47.2817 29.7349 47.4487C29.8374 47.6128 29.8887 47.7944 29.8887 47.9937C29.8887 48.2954 29.7861 48.5459 29.5811 48.7451C29.376 48.9443 29.1152 49.0439 28.7988 49.0439C28.5938 49.0439 28.3535 48.9897 28.0781 48.8813V48.2881C28.3447 48.3965 28.5703 48.4507 28.7549 48.4507C28.8926 48.4507 28.9995 48.4141 29.0757 48.3408C29.1548 48.2646 29.1943 48.1636 29.1943 48.0376C29.1943 47.9204 29.1431 47.7959 29.0405 47.6641C28.938 47.5322 28.7593 47.3638 28.5044 47.1587C28.1382 46.8628 27.9551 46.5229 27.9551 46.1392C27.9551 45.8374 28.0547 45.5869 28.2539 45.3877C28.4561 45.1855 28.7065 45.0845 29.0054 45.0845C29.1899 45.0845 29.4214 45.1328 29.6997 45.2295V45.814ZM32.0947 45.7261H31.6289V49H30.9082V45.7261H30.4468V45.1592H30.9082V44.1133H31.6289V45.1592H32.0947V45.7261ZM35.1313 49H34.4238V46.2095C34.4238 45.8433 34.2759 45.6602 33.98 45.6602C33.6753 45.6602 33.5229 45.8638 33.5229 46.271V49H32.7935V43.2124H33.5229V45.48C33.772 45.228 34.0356 45.1021 34.314 45.1021C34.8589 45.1021 35.1313 45.3965 35.1313 45.9854V49ZM38.5679 45.1592L36.7749 50.7007H36.1465L36.7749 48.6572L35.7334 45.1592H36.4497L37.0825 47.8047H37.1001L37.8823 45.1592H38.5679ZM41.4507 49H40.7344V48.5342H40.7124C40.5278 48.8799 40.2891 49.0527 39.9961 49.0527C39.7471 49.0527 39.5273 48.937 39.3369 48.7056C39.1465 48.4712 39.0513 47.9482 39.0513 47.1367C39.0513 46.416 39.123 45.8975 39.2666 45.5811C39.4102 45.2617 39.6562 45.1021 40.0049 45.1021C40.1689 45.1021 40.3008 45.1401 40.4004 45.2163C40.5029 45.2925 40.6069 45.4141 40.7124 45.5811H40.7344V45.1592H41.4507V49ZM40.2729 48.4243C40.4575 48.4243 40.5806 48.3145 40.6421 48.0947C40.7036 47.875 40.7344 47.5015 40.7344 46.9741C40.7344 46.5112 40.7065 46.186 40.6509 45.9985C40.5952 45.8081 40.478 45.7129 40.2993 45.7129C40.1206 45.7129 39.9961 45.8008 39.9258 45.9766C39.8584 46.1523 39.8247 46.4702 39.8247 46.9302C39.8247 47.4722 39.8511 47.8574 39.9038 48.0859C39.9595 48.3115 40.0825 48.4243 40.2729 48.4243Z" fill="black"/>
<path id="The Ultimate Health Guide" d="M18.96 52.8086C18.96 52.821 18.9593 52.8317 18.958 52.8408C18.9567 52.8499 18.9544 52.8574 18.9512 52.8633C18.9486 52.8685 18.945 52.8724 18.9404 52.875C18.9365 52.8776 18.932 52.8789 18.9268 52.8789H18.5713V53.9746C18.5713 53.9798 18.57 53.9844 18.5674 53.9883C18.5648 53.9922 18.5602 53.9954 18.5537 53.998C18.5472 54 18.5384 54.0016 18.5273 54.0029C18.5169 54.0049 18.5036 54.0059 18.4873 54.0059C18.4717 54.0059 18.4583 54.0049 18.4473 54.0029C18.4362 54.0016 18.4274 54 18.4209 53.998C18.4144 53.9954 18.4098 53.9922 18.4072 53.9883C18.4046 53.9844 18.4033 53.9798 18.4033 53.9746V52.8789H18.0479C18.0426 52.8789 18.0378 52.8776 18.0332 52.875C18.0293 52.8724 18.026 52.8685 18.0234 52.8633C18.0208 52.8574 18.0186 52.8499 18.0166 52.8408C18.0153 52.8317 18.0146 52.821 18.0146 52.8086C18.0146 52.7962 18.0153 52.7855 18.0166 52.7764C18.0186 52.7666 18.0208 52.7588 18.0234 52.7529C18.026 52.7471 18.0293 52.7428 18.0332 52.7402C18.0378 52.7376 18.0426 52.7363 18.0479 52.7363H18.9268C18.932 52.7363 18.9365 52.7376 18.9404 52.7402C18.945 52.7428 18.9486 52.7471 18.9512 52.7529C18.9544 52.7588 18.9567 52.7666 18.958 52.7764C18.9593 52.7855 18.96 52.7962 18.96 52.8086ZM19.8809 53.9756C19.8809 53.9808 19.8796 53.9854 19.877 53.9893C19.8743 53.9925 19.8701 53.9954 19.8643 53.998C19.8584 54.0007 19.8503 54.0026 19.8398 54.0039C19.8294 54.0052 19.8164 54.0059 19.8008 54.0059C19.7845 54.0059 19.7712 54.0052 19.7607 54.0039C19.7503 54.0026 19.7422 54.0007 19.7363 53.998C19.7305 53.9954 19.7262 53.9925 19.7236 53.9893C19.721 53.9854 19.7197 53.9808 19.7197 53.9756V53.4609C19.7197 53.4108 19.7158 53.3704 19.708 53.3398C19.7002 53.3092 19.6888 53.2829 19.6738 53.2607C19.6589 53.2386 19.6393 53.2217 19.6152 53.21C19.5918 53.1982 19.5645 53.1924 19.5332 53.1924C19.4928 53.1924 19.4525 53.2067 19.4121 53.2354C19.3717 53.264 19.3294 53.306 19.2852 53.3613V53.9756C19.2852 53.9808 19.2839 53.9854 19.2812 53.9893C19.2786 53.9925 19.2744 53.9954 19.2686 53.998C19.2627 54.0007 19.2546 54.0026 19.2441 54.0039C19.2337 54.0052 19.2204 54.0059 19.2041 54.0059C19.1885 54.0059 19.1755 54.0052 19.165 54.0039C19.1546 54.0026 19.1462 54.0007 19.1396 53.998C19.1338 53.9954 19.1296 53.9925 19.127 53.9893C19.125 53.9854 19.124 53.9808 19.124 53.9756V52.6709C19.124 52.6657 19.125 52.6611 19.127 52.6572C19.1296 52.6533 19.1338 52.6501 19.1396 52.6475C19.1462 52.6449 19.1546 52.6429 19.165 52.6416C19.1755 52.6403 19.1885 52.6396 19.2041 52.6396C19.2204 52.6396 19.2337 52.6403 19.2441 52.6416C19.2546 52.6429 19.2627 52.6449 19.2686 52.6475C19.2744 52.6501 19.2786 52.6533 19.2812 52.6572C19.2839 52.6611 19.2852 52.6657 19.2852 52.6709V53.1973C19.3314 53.1484 19.3779 53.1123 19.4248 53.0889C19.4717 53.0648 19.5189 53.0527 19.5664 53.0527C19.625 53.0527 19.6742 53.0628 19.7139 53.083C19.7542 53.1025 19.7868 53.1289 19.8115 53.1621C19.8363 53.1953 19.8538 53.2344 19.8643 53.2793C19.8753 53.3236 19.8809 53.3773 19.8809 53.4404V53.9756ZM20.9248 53.498C20.9248 53.5234 20.9183 53.5417 20.9053 53.5527C20.8929 53.5632 20.8786 53.5684 20.8623 53.5684H20.2861C20.2861 53.6172 20.291 53.6611 20.3008 53.7002C20.3105 53.7393 20.3268 53.7728 20.3496 53.8008C20.3724 53.8288 20.402 53.8503 20.4385 53.8652C20.4749 53.8802 20.5195 53.8877 20.5723 53.8877C20.6139 53.8877 20.651 53.8844 20.6836 53.8779C20.7161 53.8708 20.7441 53.863 20.7676 53.8545C20.7917 53.846 20.8112 53.8385 20.8262 53.832C20.8418 53.8249 20.8535 53.8213 20.8613 53.8213C20.8659 53.8213 20.8698 53.8226 20.873 53.8252C20.877 53.8271 20.8799 53.8304 20.8818 53.835C20.8838 53.8395 20.8851 53.846 20.8857 53.8545C20.887 53.8623 20.8877 53.8721 20.8877 53.8838C20.8877 53.8923 20.8874 53.8997 20.8867 53.9062C20.8861 53.9121 20.8851 53.9176 20.8838 53.9229C20.8831 53.9274 20.8815 53.9316 20.8789 53.9355C20.877 53.9395 20.874 53.9434 20.8701 53.9473C20.8669 53.9505 20.8564 53.9564 20.8389 53.9648C20.8213 53.9727 20.7985 53.9805 20.7705 53.9883C20.7425 53.9961 20.71 54.0029 20.6729 54.0088C20.6364 54.0153 20.5973 54.0186 20.5557 54.0186C20.4834 54.0186 20.4199 54.0085 20.3652 53.9883C20.3112 53.9681 20.2656 53.9382 20.2285 53.8984C20.1914 53.8587 20.1634 53.8089 20.1445 53.749C20.1257 53.6891 20.1162 53.6195 20.1162 53.54C20.1162 53.4645 20.126 53.3968 20.1455 53.3369C20.165 53.2764 20.193 53.2253 20.2295 53.1836C20.2666 53.1413 20.3112 53.109 20.3633 53.0869C20.4154 53.0641 20.4736 53.0527 20.5381 53.0527C20.6071 53.0527 20.6657 53.0638 20.7139 53.0859C20.7627 53.1081 20.8027 53.138 20.834 53.1758C20.8652 53.2129 20.888 53.2568 20.9023 53.3076C20.9173 53.3577 20.9248 53.4115 20.9248 53.4688V53.498ZM20.7627 53.4502C20.7646 53.3656 20.7458 53.2992 20.7061 53.251C20.667 53.2028 20.6087 53.1787 20.5312 53.1787C20.4915 53.1787 20.4567 53.1862 20.4268 53.2012C20.3968 53.2161 20.3717 53.236 20.3516 53.2607C20.3314 53.2855 20.3158 53.3145 20.3047 53.3477C20.2936 53.3802 20.2874 53.4144 20.2861 53.4502H20.7627ZM22.5928 53.5332C22.5928 53.61 22.5814 53.6787 22.5586 53.7393C22.5365 53.7992 22.5046 53.8499 22.4629 53.8916C22.4212 53.9333 22.3704 53.9648 22.3105 53.9863C22.2507 54.0078 22.1826 54.0186 22.1064 54.0186C22.0368 54.0186 21.9733 54.0085 21.916 53.9883C21.8587 53.9681 21.8096 53.9385 21.7686 53.8994C21.7275 53.8597 21.696 53.8102 21.6738 53.751C21.6517 53.6917 21.6406 53.6234 21.6406 53.5459V52.7617C21.6406 52.7565 21.6419 52.752 21.6445 52.748C21.6471 52.7441 21.6517 52.7412 21.6582 52.7393C21.6647 52.7367 21.6732 52.7347 21.6836 52.7334C21.694 52.7314 21.7077 52.7305 21.7246 52.7305C21.7402 52.7305 21.7536 52.7314 21.7646 52.7334C21.7757 52.7347 21.7842 52.7367 21.79 52.7393C21.7965 52.7412 21.8011 52.7441 21.8037 52.748C21.8063 52.752 21.8076 52.7565 21.8076 52.7617V53.5254C21.8076 53.584 21.8148 53.6351 21.8291 53.6787C21.8434 53.7223 21.8639 53.7588 21.8906 53.7881C21.918 53.8167 21.9505 53.8385 21.9883 53.8535C22.0267 53.8678 22.0697 53.875 22.1172 53.875C22.166 53.875 22.2093 53.8678 22.2471 53.8535C22.2855 53.8392 22.3177 53.8177 22.3438 53.7891C22.3704 53.7604 22.3906 53.7249 22.4043 53.6826C22.4186 53.6403 22.4258 53.5908 22.4258 53.5342V52.7617C22.4258 52.7565 22.4271 52.752 22.4297 52.748C22.4323 52.7441 22.4368 52.7412 22.4434 52.7393C22.4499 52.7367 22.4583 52.7347 22.4688 52.7334C22.4798 52.7314 22.4935 52.7305 22.5098 52.7305C22.5254 52.7305 22.5384 52.7314 22.5488 52.7334C22.5599 52.7347 22.5684 52.7367 22.5742 52.7393C22.5807 52.7412 22.5853 52.7441 22.5879 52.748C22.5911 52.752 22.5928 52.7565 22.5928 52.7617V53.5332ZM23.0684 53.9756C23.0684 53.9808 23.0671 53.9854 23.0645 53.9893C23.0618 53.9925 23.0576 53.9954 23.0518 53.998C23.0459 54.0007 23.0378 54.0026 23.0273 54.0039C23.0169 54.0052 23.0036 54.0059 22.9873 54.0059C22.9717 54.0059 22.9587 54.0052 22.9482 54.0039C22.9378 54.0026 22.9294 54.0007 22.9229 53.998C22.917 53.9954 22.9128 53.9925 22.9102 53.9893C22.9082 53.9854 22.9072 53.9808 22.9072 53.9756V52.6709C22.9072 52.6657 22.9082 52.6611 22.9102 52.6572C22.9128 52.6533 22.917 52.6501 22.9229 52.6475C22.9294 52.6449 22.9378 52.6429 22.9482 52.6416C22.9587 52.6403 22.9717 52.6396 22.9873 52.6396C23.0036 52.6396 23.0169 52.6403 23.0273 52.6416C23.0378 52.6429 23.0459 52.6449 23.0518 52.6475C23.0576 52.6501 23.0618 52.6533 23.0645 52.6572C23.0671 52.6611 23.0684 52.6657 23.0684 52.6709V53.9756ZM24.1309 53.0713C24.1504 53.0713 24.1637 53.0758 24.1709 53.085C24.1781 53.0934 24.1816 53.1061 24.1816 53.123V53.9756C24.1816 53.9808 24.1803 53.9854 24.1777 53.9893C24.1751 53.9925 24.1706 53.9954 24.1641 53.998C24.1582 54.0007 24.1501 54.0026 24.1396 54.0039C24.1292 54.0052 24.1165 54.0059 24.1016 54.0059C24.0853 54.0059 24.0719 54.0052 24.0615 54.0039C24.0511 54.0026 24.0426 54.0007 24.0361 53.998C24.0303 53.9954 24.026 53.9925 24.0234 53.9893C24.0208 53.9854 24.0195 53.9808 24.0195 53.9756V53.2051H23.5654V53.6953C23.5654 53.7559 23.5742 53.8018 23.5918 53.833C23.61 53.8636 23.6423 53.8789 23.6885 53.8789C23.7035 53.8789 23.7168 53.8776 23.7285 53.875C23.7402 53.8717 23.7507 53.8685 23.7598 53.8652C23.7689 53.862 23.7767 53.859 23.7832 53.8564C23.7897 53.8532 23.7956 53.8516 23.8008 53.8516C23.804 53.8516 23.807 53.8525 23.8096 53.8545C23.8128 53.8558 23.8151 53.8587 23.8164 53.8633C23.8184 53.8678 23.82 53.874 23.8213 53.8818C23.8226 53.8896 23.8232 53.8994 23.8232 53.9111C23.8232 53.93 23.8219 53.945 23.8193 53.9561C23.8167 53.9665 23.8128 53.9746 23.8076 53.9805C23.8024 53.9857 23.7946 53.9906 23.7842 53.9951C23.7738 53.9997 23.7617 54.0033 23.748 54.0059C23.735 54.0091 23.721 54.0117 23.7061 54.0137C23.6911 54.0156 23.6761 54.0166 23.6611 54.0166C23.6156 54.0166 23.5765 54.0107 23.5439 53.999C23.5114 53.9867 23.4847 53.9684 23.4639 53.9443C23.443 53.9196 23.4277 53.8887 23.418 53.8516C23.4089 53.8138 23.4043 53.7695 23.4043 53.7188V53.2051H23.2812C23.2715 53.2051 23.2637 53.1999 23.2578 53.1895C23.252 53.179 23.249 53.1621 23.249 53.1387C23.249 53.1263 23.2497 53.1159 23.251 53.1074C23.2529 53.099 23.2552 53.0921 23.2578 53.0869C23.2604 53.0811 23.2637 53.0771 23.2676 53.0752C23.2721 53.0726 23.277 53.0713 23.2822 53.0713H23.4043V52.8623C23.4043 52.8577 23.4053 52.8535 23.4072 52.8496C23.4098 52.8457 23.4141 52.8424 23.4199 52.8398C23.4264 52.8366 23.4349 52.8343 23.4453 52.833C23.4557 52.8317 23.4688 52.8311 23.4844 52.8311C23.5007 52.8311 23.514 52.8317 23.5244 52.833C23.5348 52.8343 23.543 52.8366 23.5488 52.8398C23.5547 52.8424 23.5589 52.8457 23.5615 52.8496C23.5641 52.8535 23.5654 52.8577 23.5654 52.8623V53.0713H24.1309ZM24.2002 52.7998C24.2002 52.8376 24.193 52.8633 24.1787 52.877C24.1644 52.8906 24.138 52.8975 24.0996 52.8975C24.0618 52.8975 24.0358 52.891 24.0215 52.8779C24.0078 52.8643 24.001 52.8389 24.001 52.8018C24.001 52.764 24.0081 52.7383 24.0225 52.7246C24.0368 52.7109 24.0632 52.7041 24.1016 52.7041C24.1393 52.7041 24.165 52.7109 24.1787 52.7246C24.193 52.7376 24.2002 52.7627 24.2002 52.7998ZM25.7852 53.9756C25.7852 53.9808 25.7839 53.9854 25.7812 53.9893C25.7786 53.9925 25.7744 53.9954 25.7686 53.998C25.7627 54.0007 25.7546 54.0026 25.7441 54.0039C25.7337 54.0052 25.7207 54.0059 25.7051 54.0059C25.6888 54.0059 25.6755 54.0052 25.665 54.0039C25.6546 54.0026 25.6462 54.0007 25.6396 53.998C25.6338 53.9954 25.6296 53.9925 25.627 53.9893C25.6243 53.9854 25.623 53.9808 25.623 53.9756V53.4414C25.623 53.4043 25.6198 53.3704 25.6133 53.3398C25.6068 53.3092 25.5964 53.2829 25.582 53.2607C25.5677 53.2386 25.5495 53.2217 25.5273 53.21C25.5052 53.1982 25.4792 53.1924 25.4492 53.1924C25.4121 53.1924 25.3747 53.2067 25.3369 53.2354C25.2998 53.264 25.2588 53.306 25.2139 53.3613V53.9756C25.2139 53.9808 25.2126 53.9854 25.21 53.9893C25.2074 53.9925 25.2028 53.9954 25.1963 53.998C25.1904 54.0007 25.1823 54.0026 25.1719 54.0039C25.1615 54.0052 25.1484 54.0059 25.1328 54.0059C25.1178 54.0059 25.1048 54.0052 25.0938 54.0039C25.0833 54.0026 25.0749 54.0007 25.0684 53.998C25.0625 53.9954 25.0583 53.9925 25.0557 53.9893C25.0537 53.9854 25.0527 53.9808 25.0527 53.9756V53.4414C25.0527 53.4043 25.0492 53.3704 25.042 53.3398C25.0348 53.3092 25.0241 53.2829 25.0098 53.2607C24.9954 53.2386 24.9772 53.2217 24.9551 53.21C24.9336 53.1982 24.9079 53.1924 24.8779 53.1924C24.8408 53.1924 24.8034 53.2067 24.7656 53.2354C24.7279 53.264 24.6868 53.306 24.6426 53.3613V53.9756C24.6426 53.9808 24.6413 53.9854 24.6387 53.9893C24.6361 53.9925 24.6318 53.9954 24.626 53.998C24.6201 54.0007 24.612 54.0026 24.6016 54.0039C24.5911 54.0052 24.5778 54.0059 24.5615 54.0059C24.5459 54.0059 24.5329 54.0052 24.5225 54.0039C24.512 54.0026 24.5036 54.0007 24.4971 53.998C24.4912 53.9954 24.487 53.9925 24.4844 53.9893C24.4824 53.9854 24.4814 53.9808 24.4814 53.9756V53.0967C24.4814 53.0915 24.4824 53.0872 24.4844 53.084C24.4863 53.0801 24.4902 53.0768 24.4961 53.0742C24.502 53.071 24.5094 53.069 24.5186 53.0684C24.5277 53.0671 24.5397 53.0664 24.5547 53.0664C24.569 53.0664 24.5807 53.0671 24.5898 53.0684C24.5996 53.069 24.6071 53.071 24.6123 53.0742C24.6175 53.0768 24.6211 53.0801 24.623 53.084C24.6257 53.0872 24.627 53.0915 24.627 53.0967V53.2129C24.6764 53.1576 24.7243 53.1172 24.7705 53.0918C24.8174 53.0658 24.8646 53.0527 24.9121 53.0527C24.9486 53.0527 24.9811 53.057 25.0098 53.0654C25.0391 53.0739 25.0648 53.0859 25.0869 53.1016C25.109 53.1165 25.1279 53.1348 25.1436 53.1562C25.1592 53.1771 25.1722 53.2005 25.1826 53.2266C25.2119 53.1947 25.2396 53.1676 25.2656 53.1455C25.2923 53.1234 25.3177 53.1055 25.3418 53.0918C25.3665 53.0781 25.3903 53.0684 25.4131 53.0625C25.4365 53.056 25.46 53.0527 25.4834 53.0527C25.54 53.0527 25.5876 53.0628 25.626 53.083C25.6644 53.1025 25.6953 53.1289 25.7188 53.1621C25.7428 53.1953 25.7598 53.2344 25.7695 53.2793C25.7799 53.3236 25.7852 53.3704 25.7852 53.4199V53.9756ZM26.7412 53.9766C26.7412 53.9844 26.7386 53.9902 26.7334 53.9941C26.7282 53.998 26.721 54.001 26.7119 54.0029C26.7028 54.0049 26.6895 54.0059 26.6719 54.0059C26.6549 54.0059 26.6413 54.0049 26.6309 54.0029C26.6211 54.001 26.6139 53.998 26.6094 53.9941C26.6048 53.9902 26.6025 53.9844 26.6025 53.9766V53.8887C26.5641 53.9297 26.5212 53.9616 26.4736 53.9844C26.4268 54.0072 26.377 54.0186 26.3242 54.0186C26.278 54.0186 26.236 54.0124 26.1982 54C26.1611 53.9883 26.1292 53.971 26.1025 53.9482C26.0765 53.9255 26.056 53.8975 26.041 53.8643C26.0267 53.8311 26.0195 53.7933 26.0195 53.751C26.0195 53.7015 26.0296 53.6585 26.0498 53.6221C26.07 53.5856 26.099 53.5553 26.1367 53.5312C26.1745 53.5072 26.2207 53.4893 26.2754 53.4775C26.3301 53.4652 26.3916 53.459 26.46 53.459H26.5811V53.3906C26.5811 53.3568 26.5775 53.3268 26.5703 53.3008C26.5632 53.2747 26.5514 53.2533 26.5352 53.2363C26.5195 53.2188 26.499 53.2057 26.4736 53.1973C26.4482 53.1882 26.417 53.1836 26.3799 53.1836C26.3402 53.1836 26.3044 53.1885 26.2725 53.1982C26.2412 53.2074 26.2135 53.2178 26.1895 53.2295C26.166 53.2406 26.1462 53.251 26.1299 53.2607C26.1143 53.2699 26.1025 53.2744 26.0947 53.2744C26.0895 53.2744 26.085 53.2731 26.0811 53.2705C26.0771 53.2679 26.0736 53.264 26.0703 53.2588C26.0677 53.2536 26.0658 53.2471 26.0645 53.2393C26.0632 53.2308 26.0625 53.2217 26.0625 53.2119C26.0625 53.1956 26.0635 53.1829 26.0654 53.1738C26.068 53.1641 26.0736 53.1549 26.082 53.1465C26.0911 53.138 26.1064 53.1283 26.1279 53.1172C26.1494 53.1055 26.1742 53.0951 26.2021 53.0859C26.2301 53.0762 26.2607 53.0684 26.2939 53.0625C26.3271 53.056 26.3607 53.0527 26.3945 53.0527C26.4577 53.0527 26.5114 53.0599 26.5557 53.0742C26.5999 53.0885 26.6357 53.1097 26.6631 53.1377C26.6904 53.165 26.7103 53.1992 26.7227 53.2402C26.735 53.2812 26.7412 53.3291 26.7412 53.3838V53.9766ZM26.5811 53.5752H26.4434C26.3991 53.5752 26.3607 53.5791 26.3281 53.5869C26.2956 53.5941 26.2686 53.6051 26.2471 53.6201C26.2256 53.6344 26.2096 53.652 26.1992 53.6729C26.1895 53.693 26.1846 53.7165 26.1846 53.7432C26.1846 53.7887 26.1989 53.8252 26.2275 53.8525C26.2568 53.8792 26.2975 53.8926 26.3496 53.8926C26.3919 53.8926 26.431 53.8818 26.4668 53.8604C26.5033 53.8389 26.5413 53.806 26.5811 53.7617V53.5752ZM27.4756 53.9111C27.4756 53.93 27.4743 53.945 27.4717 53.9561C27.4691 53.9671 27.4652 53.9753 27.46 53.9805C27.4548 53.9857 27.4469 53.9906 27.4365 53.9951C27.4261 53.9997 27.4141 54.0033 27.4004 54.0059C27.3874 54.0091 27.3734 54.0117 27.3584 54.0137C27.3434 54.0156 27.3285 54.0166 27.3135 54.0166C27.2679 54.0166 27.2288 54.0107 27.1963 53.999C27.1637 53.9867 27.137 53.9684 27.1162 53.9443C27.0954 53.9196 27.0801 53.8887 27.0703 53.8516C27.0612 53.8138 27.0566 53.7695 27.0566 53.7188V53.2051H26.9336C26.9238 53.2051 26.916 53.1999 26.9102 53.1895C26.9043 53.179 26.9014 53.1621 26.9014 53.1387C26.9014 53.1263 26.902 53.1159 26.9033 53.1074C26.9053 53.099 26.9076 53.0921 26.9102 53.0869C26.9128 53.0811 26.916 53.0771 26.9199 53.0752C26.9245 53.0726 26.9294 53.0713 26.9346 53.0713H27.0566V52.8623C27.0566 52.8577 27.0576 52.8535 27.0596 52.8496C27.0622 52.8457 27.0664 52.8424 27.0723 52.8398C27.0788 52.8366 27.0872 52.8343 27.0977 52.833C27.1081 52.8317 27.1211 52.8311 27.1367 52.8311C27.153 52.8311 27.1663 52.8317 27.1768 52.833C27.1872 52.8343 27.1953 52.8366 27.2012 52.8398C27.207 52.8424 27.2113 52.8457 27.2139 52.8496C27.2165 52.8535 27.2178 52.8577 27.2178 52.8623V53.0713H27.4434C27.4486 53.0713 27.4531 53.0726 27.457 53.0752C27.4609 53.0771 27.4642 53.0811 27.4668 53.0869C27.4701 53.0921 27.4723 53.099 27.4736 53.1074C27.4749 53.1159 27.4756 53.1263 27.4756 53.1387C27.4756 53.1621 27.4727 53.179 27.4668 53.1895C27.4609 53.1999 27.4531 53.2051 27.4434 53.2051H27.2178V53.6953C27.2178 53.7559 27.2266 53.8018 27.2441 53.833C27.2624 53.8636 27.2946 53.8789 27.3408 53.8789C27.3558 53.8789 27.3691 53.8776 27.3809 53.875C27.3926 53.8717 27.403 53.8685 27.4121 53.8652C27.4212 53.862 27.429 53.859 27.4355 53.8564C27.4421 53.8532 27.4479 53.8516 27.4531 53.8516C27.4564 53.8516 27.4593 53.8525 27.4619 53.8545C27.4652 53.8558 27.4674 53.8587 27.4688 53.8633C27.4707 53.8678 27.4723 53.874 27.4736 53.8818C27.4749 53.8896 27.4756 53.8994 27.4756 53.9111ZM28.417 53.498C28.417 53.5234 28.4105 53.5417 28.3975 53.5527C28.3851 53.5632 28.3708 53.5684 28.3545 53.5684H27.7783C27.7783 53.6172 27.7832 53.6611 27.793 53.7002C27.8027 53.7393 27.819 53.7728 27.8418 53.8008C27.8646 53.8288 27.8942 53.8503 27.9307 53.8652C27.9671 53.8802 28.0117 53.8877 28.0645 53.8877C28.1061 53.8877 28.1432 53.8844 28.1758 53.8779C28.2083 53.8708 28.2363 53.863 28.2598 53.8545C28.2839 53.846 28.3034 53.8385 28.3184 53.832C28.334 53.8249 28.3457 53.8213 28.3535 53.8213C28.3581 53.8213 28.362 53.8226 28.3652 53.8252C28.3691 53.8271 28.3721 53.8304 28.374 53.835C28.376 53.8395 28.3773 53.846 28.3779 53.8545C28.3792 53.8623 28.3799 53.8721 28.3799 53.8838C28.3799 53.8923 28.3796 53.8997 28.3789 53.9062C28.3783 53.9121 28.3773 53.9176 28.376 53.9229C28.3753 53.9274 28.3737 53.9316 28.3711 53.9355C28.3691 53.9395 28.3662 53.9434 28.3623 53.9473C28.359 53.9505 28.3486 53.9564 28.3311 53.9648C28.3135 53.9727 28.2907 53.9805 28.2627 53.9883C28.2347 53.9961 28.2021 54.0029 28.165 54.0088C28.1286 54.0153 28.0895 54.0186 28.0479 54.0186C27.9756 54.0186 27.9121 54.0085 27.8574 53.9883C27.8034 53.9681 27.7578 53.9382 27.7207 53.8984C27.6836 53.8587 27.6556 53.8089 27.6367 53.749C27.6178 53.6891 27.6084 53.6195 27.6084 53.54C27.6084 53.4645 27.6182 53.3968 27.6377 53.3369C27.6572 53.2764 27.6852 53.2253 27.7217 53.1836C27.7588 53.1413 27.8034 53.109 27.8555 53.0869C27.9076 53.0641 27.9658 53.0527 28.0303 53.0527C28.0993 53.0527 28.1579 53.0638 28.2061 53.0859C28.2549 53.1081 28.2949 53.138 28.3262 53.1758C28.3574 53.2129 28.3802 53.2568 28.3945 53.3076C28.4095 53.3577 28.417 53.4115 28.417 53.4688V53.498ZM28.2549 53.4502C28.2568 53.3656 28.238 53.2992 28.1982 53.251C28.1592 53.2028 28.1009 53.1787 28.0234 53.1787C27.9837 53.1787 27.9489 53.1862 27.9189 53.2012C27.889 53.2161 27.8639 53.236 27.8438 53.2607C27.8236 53.2855 27.8079 53.3145 27.7969 53.3477C27.7858 53.3802 27.7796 53.4144 27.7783 53.4502H28.2549ZM30.0449 53.9746C30.0449 53.9798 30.0436 53.9844 30.041 53.9883C30.0384 53.9922 30.0339 53.9954 30.0273 53.998C30.0208 54 30.012 54.0016 30.001 54.0029C29.9906 54.0049 29.9775 54.0059 29.9619 54.0059C29.945 54.0059 29.9313 54.0049 29.9209 54.0029C29.9105 54.0016 29.902 54 29.8955 53.998C29.889 53.9954 29.8844 53.9922 29.8818 53.9883C29.8792 53.9844 29.8779 53.9798 29.8779 53.9746V53.4141H29.3027V53.9746C29.3027 53.9798 29.3014 53.9844 29.2988 53.9883C29.2962 53.9922 29.2917 53.9954 29.2852 53.998C29.2786 54 29.2699 54.0016 29.2588 54.0029C29.2484 54.0049 29.235 54.0059 29.2188 54.0059C29.2031 54.0059 29.1898 54.0049 29.1787 54.0029C29.1676 54.0016 29.1589 54 29.1523 53.998C29.1458 53.9954 29.1413 53.9922 29.1387 53.9883C29.1361 53.9844 29.1348 53.9798 29.1348 53.9746V52.7617C29.1348 52.7565 29.1361 52.752 29.1387 52.748C29.1413 52.7441 29.1458 52.7412 29.1523 52.7393C29.1589 52.7367 29.1676 52.7347 29.1787 52.7334C29.1898 52.7314 29.2031 52.7305 29.2188 52.7305C29.235 52.7305 29.2484 52.7314 29.2588 52.7334C29.2699 52.7347 29.2786 52.7367 29.2852 52.7393C29.2917 52.7412 29.2962 52.7441 29.2988 52.748C29.3014 52.752 29.3027 52.7565 29.3027 52.7617V53.2676H29.8779V52.7617C29.8779 52.7565 29.8792 52.752 29.8818 52.748C29.8844 52.7441 29.889 52.7412 29.8955 52.7393C29.902 52.7367 29.9105 52.7347 29.9209 52.7334C29.9313 52.7314 29.945 52.7305 29.9619 52.7305C29.9775 52.7305 29.9906 52.7314 30.001 52.7334C30.012 52.7347 30.0208 52.7367 30.0273 52.7393C30.0339 52.7412 30.0384 52.7441 30.041 52.748C30.0436 52.752 30.0449 52.7565 30.0449 52.7617V53.9746ZM31.1123 53.498C31.1123 53.5234 31.1058 53.5417 31.0928 53.5527C31.0804 53.5632 31.0661 53.5684 31.0498 53.5684H30.4736C30.4736 53.6172 30.4785 53.6611 30.4883 53.7002C30.498 53.7393 30.5143 53.7728 30.5371 53.8008C30.5599 53.8288 30.5895 53.8503 30.626 53.8652C30.6624 53.8802 30.707 53.8877 30.7598 53.8877C30.8014 53.8877 30.8385 53.8844 30.8711 53.8779C30.9036 53.8708 30.9316 53.863 30.9551 53.8545C30.9792 53.846 30.9987 53.8385 31.0137 53.832C31.0293 53.8249 31.041 53.8213 31.0488 53.8213C31.0534 53.8213 31.0573 53.8226 31.0605 53.8252C31.0645 53.8271 31.0674 53.8304 31.0693 53.835C31.0713 53.8395 31.0726 53.846 31.0732 53.8545C31.0745 53.8623 31.0752 53.8721 31.0752 53.8838C31.0752 53.8923 31.0749 53.8997 31.0742 53.9062C31.0736 53.9121 31.0726 53.9176 31.0713 53.9229C31.0706 53.9274 31.069 53.9316 31.0664 53.9355C31.0645 53.9395 31.0615 53.9434 31.0576 53.9473C31.0544 53.9505 31.0439 53.9564 31.0264 53.9648C31.0088 53.9727 30.986 53.9805 30.958 53.9883C30.93 53.9961 30.8975 54.0029 30.8604 54.0088C30.8239 54.0153 30.7848 54.0186 30.7432 54.0186C30.6709 54.0186 30.6074 54.0085 30.5527 53.9883C30.4987 53.9681 30.4531 53.9382 30.416 53.8984C30.3789 53.8587 30.3509 53.8089 30.332 53.749C30.3132 53.6891 30.3037 53.6195 30.3037 53.54C30.3037 53.4645 30.3135 53.3968 30.333 53.3369C30.3525 53.2764 30.3805 53.2253 30.417 53.1836C30.4541 53.1413 30.4987 53.109 30.5508 53.0869C30.6029 53.0641 30.6611 53.0527 30.7256 53.0527C30.7946 53.0527 30.8532 53.0638 30.9014 53.0859C30.9502 53.1081 30.9902 53.138 31.0215 53.1758C31.0527 53.2129 31.0755 53.2568 31.0898 53.3076C31.1048 53.3577 31.1123 53.4115 31.1123 53.4688V53.498ZM30.9502 53.4502C30.9521 53.3656 30.9333 53.2992 30.8936 53.251C30.8545 53.2028 30.7962 53.1787 30.7188 53.1787C30.679 53.1787 30.6442 53.1862 30.6143 53.2012C30.5843 53.2161 30.5592 53.236 30.5391 53.2607C30.5189 53.2855 30.5033 53.3145 30.4922 53.3477C30.4811 53.3802 30.4749 53.4144 30.4736 53.4502H30.9502ZM32.0205 53.9766C32.0205 53.9844 32.0179 53.9902 32.0127 53.9941C32.0075 53.998 32.0003 54.001 31.9912 54.0029C31.9821 54.0049 31.9688 54.0059 31.9512 54.0059C31.9342 54.0059 31.9206 54.0049 31.9102 54.0029C31.9004 54.001 31.8932 53.998 31.8887 53.9941C31.8841 53.9902 31.8818 53.9844 31.8818 53.9766V53.8887C31.8434 53.9297 31.8005 53.9616 31.7529 53.9844C31.7061 54.0072 31.6562 54.0186 31.6035 54.0186C31.5573 54.0186 31.5153 54.0124 31.4775 54C31.4404 53.9883 31.4085 53.971 31.3818 53.9482C31.3558 53.9255 31.3353 53.8975 31.3203 53.8643C31.306 53.8311 31.2988 53.7933 31.2988 53.751C31.2988 53.7015 31.3089 53.6585 31.3291 53.6221C31.3493 53.5856 31.3783 53.5553 31.416 53.5312C31.4538 53.5072 31.5 53.4893 31.5547 53.4775C31.6094 53.4652 31.6709 53.459 31.7393 53.459H31.8604V53.3906C31.8604 53.3568 31.8568 53.3268 31.8496 53.3008C31.8424 53.2747 31.8307 53.2533 31.8145 53.2363C31.7988 53.2188 31.7783 53.2057 31.7529 53.1973C31.7275 53.1882 31.6963 53.1836 31.6592 53.1836C31.6195 53.1836 31.5837 53.1885 31.5518 53.1982C31.5205 53.2074 31.4928 53.2178 31.4688 53.2295C31.4453 53.2406 31.4255 53.251 31.4092 53.2607C31.3936 53.2699 31.3818 53.2744 31.374 53.2744C31.3688 53.2744 31.3643 53.2731 31.3604 53.2705C31.3564 53.2679 31.3529 53.264 31.3496 53.2588C31.347 53.2536 31.3451 53.2471 31.3438 53.2393C31.3424 53.2308 31.3418 53.2217 31.3418 53.2119C31.3418 53.1956 31.3428 53.1829 31.3447 53.1738C31.3473 53.1641 31.3529 53.1549 31.3613 53.1465C31.3704 53.138 31.3857 53.1283 31.4072 53.1172C31.4287 53.1055 31.4535 53.0951 31.4814 53.0859C31.5094 53.0762 31.54 53.0684 31.5732 53.0625C31.6064 53.056 31.64 53.0527 31.6738 53.0527C31.737 53.0527 31.7907 53.0599 31.835 53.0742C31.8792 53.0885 31.915 53.1097 31.9424 53.1377C31.9697 53.165 31.9896 53.1992 32.002 53.2402C32.0143 53.2812 32.0205 53.3291 32.0205 53.3838V53.9766ZM31.8604 53.5752H31.7227C31.6784 53.5752 31.64 53.5791 31.6074 53.5869C31.5749 53.5941 31.5479 53.6051 31.5264 53.6201C31.5049 53.6344 31.4889 53.652 31.4785 53.6729C31.4688 53.693 31.4639 53.7165 31.4639 53.7432C31.4639 53.7887 31.4782 53.8252 31.5068 53.8525C31.5361 53.8792 31.5768 53.8926 31.6289 53.8926C31.6712 53.8926 31.7103 53.8818 31.7461 53.8604C31.7826 53.8389 31.8206 53.806 31.8604 53.7617V53.5752ZM32.4785 53.9756C32.4785 53.9808 32.4772 53.9854 32.4746 53.9893C32.472 53.9925 32.4678 53.9954 32.4619 53.998C32.4561 54.0007 32.4479 54.0026 32.4375 54.0039C32.4271 54.0052 32.4137 54.0059 32.3975 54.0059C32.3818 54.0059 32.3688 54.0052 32.3584 54.0039C32.348 54.0026 32.3395 54.0007 32.333 53.998C32.3271 53.9954 32.3229 53.9925 32.3203 53.9893C32.3184 53.9854 32.3174 53.9808 32.3174 53.9756V52.6709C32.3174 52.6657 32.3184 52.6611 32.3203 52.6572C32.3229 52.6533 32.3271 52.6501 32.333 52.6475C32.3395 52.6449 32.348 52.6429 32.3584 52.6416C32.3688 52.6403 32.3818 52.6396 32.3975 52.6396C32.4137 52.6396 32.4271 52.6403 32.4375 52.6416C32.4479 52.6429 32.4561 52.6449 32.4619 52.6475C32.4678 52.6501 32.472 52.6533 32.4746 52.6572C32.4772 52.6611 32.4785 52.6657 32.4785 52.6709V53.9756ZM33.2334 53.9111C33.2334 53.93 33.2321 53.945 33.2295 53.9561C33.2269 53.9671 33.223 53.9753 33.2178 53.9805C33.2126 53.9857 33.2048 53.9906 33.1943 53.9951C33.1839 53.9997 33.1719 54.0033 33.1582 54.0059C33.1452 54.0091 33.1312 54.0117 33.1162 54.0137C33.1012 54.0156 33.0863 54.0166 33.0713 54.0166C33.0257 54.0166 32.9867 54.0107 32.9541 53.999C32.9215 53.9867 32.8949 53.9684 32.874 53.9443C32.8532 53.9196 32.8379 53.8887 32.8281 53.8516C32.819 53.8138 32.8145 53.7695 32.8145 53.7188V53.2051H32.6914C32.6816 53.2051 32.6738 53.1999 32.668 53.1895C32.6621 53.179 32.6592 53.1621 32.6592 53.1387C32.6592 53.1263 32.6598 53.1159 32.6611 53.1074C32.6631 53.099 32.6654 53.0921 32.668 53.0869C32.6706 53.0811 32.6738 53.0771 32.6777 53.0752C32.6823 53.0726 32.6872 53.0713 32.6924 53.0713H32.8145V52.8623C32.8145 52.8577 32.8154 52.8535 32.8174 52.8496C32.82 52.8457 32.8242 52.8424 32.8301 52.8398C32.8366 52.8366 32.8451 52.8343 32.8555 52.833C32.8659 52.8317 32.8789 52.8311 32.8945 52.8311C32.9108 52.8311 32.9242 52.8317 32.9346 52.833C32.945 52.8343 32.9531 52.8366 32.959 52.8398C32.9648 52.8424 32.9691 52.8457 32.9717 52.8496C32.9743 52.8535 32.9756 52.8577 32.9756 52.8623V53.0713H33.2012C33.2064 53.0713 33.2109 53.0726 33.2148 53.0752C33.2188 53.0771 33.222 53.0811 33.2246 53.0869C33.2279 53.0921 33.2301 53.099 33.2314 53.1074C33.2327 53.1159 33.2334 53.1263 33.2334 53.1387C33.2334 53.1621 33.2305 53.179 33.2246 53.1895C33.2188 53.1999 33.2109 53.2051 33.2012 53.2051H32.9756V53.6953C32.9756 53.7559 32.9844 53.8018 33.002 53.833C33.0202 53.8636 33.0524 53.8789 33.0986 53.8789C33.1136 53.8789 33.127 53.8776 33.1387 53.875C33.1504 53.8717 33.1608 53.8685 33.1699 53.8652C33.179 53.862 33.1868 53.859 33.1934 53.8564C33.1999 53.8532 33.2057 53.8516 33.2109 53.8516C33.2142 53.8516 33.2171 53.8525 33.2197 53.8545C33.223 53.8558 33.2253 53.8587 33.2266 53.8633C33.2285 53.8678 33.2301 53.874 33.2314 53.8818C33.2327 53.8896 33.2334 53.8994 33.2334 53.9111ZM34.2031 53.9756C34.2031 53.9808 34.2018 53.9854 34.1992 53.9893C34.1966 53.9925 34.1924 53.9954 34.1865 53.998C34.1807 54.0007 34.1725 54.0026 34.1621 54.0039C34.1517 54.0052 34.1387 54.0059 34.123 54.0059C34.1068 54.0059 34.0934 54.0052 34.083 54.0039C34.0726 54.0026 34.0645 54.0007 34.0586 53.998C34.0527 53.9954 34.0485 53.9925 34.0459 53.9893C34.0433 53.9854 34.042 53.9808 34.042 53.9756V53.4609C34.042 53.4108 34.0381 53.3704 34.0303 53.3398C34.0225 53.3092 34.0111 53.2829 33.9961 53.2607C33.9811 53.2386 33.9616 53.2217 33.9375 53.21C33.9141 53.1982 33.8867 53.1924 33.8555 53.1924C33.8151 53.1924 33.7747 53.2067 33.7344 53.2354C33.694 53.264 33.6517 53.306 33.6074 53.3613V53.9756C33.6074 53.9808 33.6061 53.9854 33.6035 53.9893C33.6009 53.9925 33.5967 53.9954 33.5908 53.998C33.585 54.0007 33.5768 54.0026 33.5664 54.0039C33.556 54.0052 33.5426 54.0059 33.5264 54.0059C33.5107 54.0059 33.4977 54.0052 33.4873 54.0039C33.4769 54.0026 33.4684 54.0007 33.4619 53.998C33.4561 53.9954 33.4518 53.9925 33.4492 53.9893C33.4473 53.9854 33.4463 53.9808 33.4463 53.9756V52.6709C33.4463 52.6657 33.4473 52.6611 33.4492 52.6572C33.4518 52.6533 33.4561 52.6501 33.4619 52.6475C33.4684 52.6449 33.4769 52.6429 33.4873 52.6416C33.4977 52.6403 33.5107 52.6396 33.5264 52.6396C33.5426 52.6396 33.556 52.6403 33.5664 52.6416C33.5768 52.6429 33.585 52.6449 33.5908 52.6475C33.5967 52.6501 33.6009 52.6533 33.6035 52.6572C33.6061 52.6611 33.6074 52.6657 33.6074 52.6709V53.1973C33.6536 53.1484 33.7002 53.1123 33.7471 53.0889C33.7939 53.0648 33.8411 53.0527 33.8887 53.0527C33.9473 53.0527 33.9964 53.0628 34.0361 53.083C34.0765 53.1025 34.109 53.1289 34.1338 53.1621C34.1585 53.1953 34.1761 53.2344 34.1865 53.2793C34.1976 53.3236 34.2031 53.3773 34.2031 53.4404V53.9756ZM35.918 52.9082C35.918 52.9206 35.9173 52.9316 35.916 52.9414C35.9147 52.9505 35.9128 52.9583 35.9102 52.9648C35.9076 52.9707 35.9043 52.9749 35.9004 52.9775C35.8965 52.9801 35.8923 52.9814 35.8877 52.9814C35.8799 52.9814 35.8669 52.9753 35.8486 52.9629C35.8304 52.9505 35.806 52.9368 35.7754 52.9219C35.7448 52.9069 35.708 52.8932 35.665 52.8809C35.6227 52.8685 35.5723 52.8623 35.5137 52.8623C35.444 52.8623 35.3815 52.875 35.3262 52.9004C35.2708 52.9258 35.224 52.9609 35.1855 53.0059C35.1471 53.0508 35.1175 53.1042 35.0967 53.166C35.0765 53.2279 35.0664 53.2949 35.0664 53.3672C35.0664 53.4479 35.0775 53.5195 35.0996 53.582C35.1224 53.6445 35.1536 53.6973 35.1934 53.7402C35.2331 53.7832 35.2803 53.8158 35.335 53.8379C35.3903 53.86 35.4508 53.8711 35.5166 53.8711C35.5557 53.8711 35.5951 53.8665 35.6348 53.8574C35.6751 53.8477 35.7126 53.8333 35.7471 53.8145V53.4463H35.4541C35.443 53.4463 35.4346 53.4408 35.4287 53.4297C35.4235 53.4186 35.4209 53.4014 35.4209 53.3779C35.4209 53.3656 35.4215 53.3551 35.4229 53.3467C35.4242 53.3376 35.4261 53.3304 35.4287 53.3252C35.432 53.3193 35.4355 53.3151 35.4395 53.3125C35.4434 53.3099 35.4482 53.3086 35.4541 53.3086H35.8555C35.8626 53.3086 35.8698 53.3099 35.877 53.3125C35.8841 53.3151 35.8906 53.319 35.8965 53.3242C35.9023 53.3294 35.9069 53.3366 35.9102 53.3457C35.9134 53.3548 35.915 53.3652 35.915 53.377V53.8584C35.915 53.8753 35.9121 53.89 35.9062 53.9023C35.9004 53.9147 35.888 53.9258 35.8691 53.9355C35.8503 53.9447 35.8258 53.9548 35.7959 53.9658C35.766 53.9769 35.735 53.9863 35.7031 53.9941C35.6712 54.002 35.639 54.0078 35.6064 54.0117C35.5739 54.0156 35.5417 54.0176 35.5098 54.0176C35.4121 54.0176 35.3249 54.0026 35.248 53.9727C35.1712 53.9421 35.1061 53.8988 35.0527 53.8428C35 53.7868 34.9596 53.7197 34.9316 53.6416C34.9036 53.5635 34.8896 53.4762 34.8896 53.3799C34.8896 53.2796 34.9046 53.1888 34.9346 53.1074C34.9652 53.026 35.0078 52.9567 35.0625 52.8994C35.1178 52.8421 35.1839 52.7979 35.2607 52.7666C35.3382 52.7347 35.4238 52.7188 35.5176 52.7188C35.5658 52.7188 35.611 52.723 35.6533 52.7314C35.6956 52.7399 35.7331 52.75 35.7656 52.7617C35.7988 52.7728 35.8265 52.7852 35.8486 52.7988C35.8714 52.8118 35.887 52.8226 35.8955 52.8311C35.904 52.8395 35.9098 52.8493 35.9131 52.8604C35.9163 52.8714 35.918 52.8874 35.918 52.9082ZM36.9648 53.9756C36.9648 53.9808 36.9635 53.9854 36.9609 53.9893C36.959 53.9925 36.9551 53.9954 36.9492 53.998C36.9434 54.0007 36.9355 54.0026 36.9258 54.0039C36.9167 54.0052 36.9053 54.0059 36.8916 54.0059C36.8766 54.0059 36.8643 54.0052 36.8545 54.0039C36.8454 54.0026 36.8379 54.0007 36.832 53.998C36.8268 53.9954 36.8232 53.9925 36.8213 53.9893C36.8193 53.9854 36.8184 53.9808 36.8184 53.9756V53.8594C36.7682 53.9147 36.7188 53.9551 36.6699 53.9805C36.6211 54.0059 36.5716 54.0186 36.5215 54.0186C36.4629 54.0186 36.4134 54.0088 36.373 53.9893C36.3333 53.9697 36.3011 53.9434 36.2764 53.9102C36.2516 53.8763 36.2337 53.8372 36.2227 53.793C36.2122 53.748 36.207 53.6937 36.207 53.6299V53.0967C36.207 53.0915 36.208 53.0872 36.21 53.084C36.2126 53.0801 36.2171 53.0768 36.2236 53.0742C36.2301 53.071 36.2386 53.069 36.249 53.0684C36.2594 53.0671 36.2725 53.0664 36.2881 53.0664C36.3037 53.0664 36.3167 53.0671 36.3271 53.0684C36.3376 53.069 36.3457 53.071 36.3516 53.0742C36.3581 53.0768 36.3626 53.0801 36.3652 53.084C36.3678 53.0872 36.3691 53.0915 36.3691 53.0967V53.6084C36.3691 53.6598 36.3727 53.7012 36.3799 53.7324C36.3877 53.763 36.3991 53.7894 36.4141 53.8115C36.4297 53.833 36.4492 53.8499 36.4727 53.8623C36.4961 53.874 36.5234 53.8799 36.5547 53.8799C36.5951 53.8799 36.6351 53.8656 36.6748 53.8369C36.7152 53.8083 36.7578 53.7663 36.8027 53.7109V53.0967C36.8027 53.0915 36.8037 53.0872 36.8057 53.084C36.8083 53.0801 36.8128 53.0768 36.8193 53.0742C36.8258 53.071 36.834 53.069 36.8438 53.0684C36.8542 53.0671 36.8675 53.0664 36.8838 53.0664C36.8994 53.0664 36.9124 53.0671 36.9229 53.0684C36.9333 53.069 36.9414 53.071 36.9473 53.0742C36.9531 53.0768 36.9574 53.0801 36.96 53.084C36.9632 53.0872 36.9648 53.0915 36.9648 53.0967V53.9756ZM37.4238 53.9756C37.4238 53.9808 37.4225 53.9854 37.4199 53.9893C37.4173 53.9925 37.4131 53.9954 37.4072 53.998C37.4014 54.0007 37.3932 54.0026 37.3828 54.0039C37.3724 54.0052 37.359 54.0059 37.3428 54.0059C37.3271 54.0059 37.3141 54.0052 37.3037 54.0039C37.2933 54.0026 37.2848 54.0007 37.2783 53.998C37.2725 53.9954 37.2682 53.9925 37.2656 53.9893C37.2637 53.9854 37.2627 53.9808 37.2627 53.9756V53.0967C37.2627 53.0921 37.2637 53.0879 37.2656 53.084C37.2682 53.0801 37.2725 53.0768 37.2783 53.0742C37.2848 53.0716 37.2933 53.0697 37.3037 53.0684C37.3141 53.0671 37.3271 53.0664 37.3428 53.0664C37.359 53.0664 37.3724 53.0671 37.3828 53.0684C37.3932 53.0697 37.4014 53.0716 37.4072 53.0742C37.4131 53.0768 37.4173 53.0801 37.4199 53.084C37.4225 53.0879 37.4238 53.0921 37.4238 53.0967V53.9756ZM37.4424 52.7998C37.4424 52.8376 37.4352 52.8633 37.4209 52.877C37.4066 52.8906 37.3802 52.8975 37.3418 52.8975C37.304 52.8975 37.278 52.891 37.2637 52.8779C37.25 52.8643 37.2432 52.8389 37.2432 52.8018C37.2432 52.764 37.2503 52.7383 37.2646 52.7246C37.279 52.7109 37.3053 52.7041 37.3438 52.7041C37.3815 52.7041 37.4072 52.7109 37.4209 52.7246C37.4352 52.7376 37.4424 52.7627 37.4424 52.7998ZM38.4746 53.9756C38.4746 53.9808 38.4733 53.9854 38.4707 53.9893C38.4688 53.9932 38.4648 53.9964 38.459 53.999C38.4538 54.001 38.4466 54.0026 38.4375 54.0039C38.4284 54.0052 38.4173 54.0059 38.4043 54.0059C38.3906 54.0059 38.3792 54.0052 38.3701 54.0039C38.361 54.0026 38.3535 54.001 38.3477 53.999C38.3418 53.9964 38.3376 53.9932 38.335 53.9893C38.3324 53.9854 38.3311 53.9808 38.3311 53.9756V53.8594C38.2848 53.9095 38.2367 53.9486 38.1865 53.9766C38.137 54.0046 38.0827 54.0186 38.0234 54.0186C37.959 54.0186 37.904 54.0062 37.8584 53.9814C37.8128 53.9561 37.7757 53.9222 37.7471 53.8799C37.7191 53.8369 37.6986 53.7868 37.6855 53.7295C37.6725 53.6715 37.666 53.6107 37.666 53.5469C37.666 53.4714 37.6742 53.4033 37.6904 53.3428C37.7067 53.2816 37.7308 53.2295 37.7627 53.1865C37.7946 53.1436 37.834 53.1107 37.8809 53.0879C37.9284 53.0645 37.9831 53.0527 38.0449 53.0527C38.0964 53.0527 38.1432 53.0641 38.1855 53.0869C38.2285 53.109 38.2708 53.1419 38.3125 53.1855V52.6748C38.3125 52.6702 38.3135 52.666 38.3154 52.6621C38.318 52.6576 38.3226 52.6543 38.3291 52.6523C38.3356 52.6497 38.3438 52.6478 38.3535 52.6465C38.3639 52.6445 38.377 52.6436 38.3926 52.6436C38.4089 52.6436 38.4222 52.6445 38.4326 52.6465C38.443 52.6478 38.4512 52.6497 38.457 52.6523C38.4629 52.6543 38.4671 52.6576 38.4697 52.6621C38.473 52.666 38.4746 52.6702 38.4746 52.6748V53.9756ZM38.3125 53.3574C38.2689 53.3034 38.2266 53.2624 38.1855 53.2344C38.1452 53.2057 38.1029 53.1914 38.0586 53.1914C38.0176 53.1914 37.9827 53.2012 37.9541 53.2207C37.9255 53.2402 37.902 53.266 37.8838 53.2979C37.8662 53.3298 37.8532 53.3659 37.8447 53.4062C37.8369 53.4466 37.833 53.4876 37.833 53.5293C37.833 53.5736 37.8363 53.6169 37.8428 53.6592C37.8499 53.7015 37.862 53.7393 37.8789 53.7725C37.8958 53.805 37.9183 53.8314 37.9463 53.8516C37.9743 53.8711 38.0094 53.8809 38.0518 53.8809C38.0732 53.8809 38.0938 53.8779 38.1133 53.8721C38.1335 53.8662 38.154 53.8564 38.1748 53.8428C38.1956 53.8291 38.2174 53.8115 38.2402 53.79C38.263 53.7679 38.2871 53.7409 38.3125 53.709V53.3574ZM39.5225 53.498C39.5225 53.5234 39.516 53.5417 39.5029 53.5527C39.4906 53.5632 39.4762 53.5684 39.46 53.5684H38.8838C38.8838 53.6172 38.8887 53.6611 38.8984 53.7002C38.9082 53.7393 38.9245 53.7728 38.9473 53.8008C38.9701 53.8288 38.9997 53.8503 39.0361 53.8652C39.0726 53.8802 39.1172 53.8877 39.1699 53.8877C39.2116 53.8877 39.2487 53.8844 39.2812 53.8779C39.3138 53.8708 39.3418 53.863 39.3652 53.8545C39.3893 53.846 39.4089 53.8385 39.4238 53.832C39.4395 53.8249 39.4512 53.8213 39.459 53.8213C39.4635 53.8213 39.4674 53.8226 39.4707 53.8252C39.4746 53.8271 39.4775 53.8304 39.4795 53.835C39.4814 53.8395 39.4827 53.846 39.4834 53.8545C39.4847 53.8623 39.4854 53.8721 39.4854 53.8838C39.4854 53.8923 39.485 53.8997 39.4844 53.9062C39.4837 53.9121 39.4827 53.9176 39.4814 53.9229C39.4808 53.9274 39.4792 53.9316 39.4766 53.9355C39.4746 53.9395 39.4717 53.9434 39.4678 53.9473C39.4645 53.9505 39.4541 53.9564 39.4365 53.9648C39.4189 53.9727 39.3962 53.9805 39.3682 53.9883C39.3402 53.9961 39.3076 54.0029 39.2705 54.0088C39.234 54.0153 39.195 54.0186 39.1533 54.0186C39.0811 54.0186 39.0176 54.0085 38.9629 53.9883C38.9089 53.9681 38.8633 53.9382 38.8262 53.8984C38.7891 53.8587 38.7611 53.8089 38.7422 53.749C38.7233 53.6891 38.7139 53.6195 38.7139 53.54C38.7139 53.4645 38.7236 53.3968 38.7432 53.3369C38.7627 53.2764 38.7907 53.2253 38.8271 53.1836C38.8643 53.1413 38.9089 53.109 38.9609 53.0869C39.013 53.0641 39.0713 53.0527 39.1357 53.0527C39.2048 53.0527 39.2633 53.0638 39.3115 53.0859C39.3604 53.1081 39.4004 53.138 39.4316 53.1758C39.4629 53.2129 39.4857 53.2568 39.5 53.3076C39.515 53.3577 39.5225 53.4115 39.5225 53.4688V53.498ZM39.3604 53.4502C39.3623 53.3656 39.3434 53.2992 39.3037 53.251C39.2646 53.2028 39.2064 53.1787 39.1289 53.1787C39.0892 53.1787 39.0544 53.1862 39.0244 53.2012C38.9945 53.2161 38.9694 53.236 38.9492 53.2607C38.929 53.2855 38.9134 53.3145 38.9023 53.3477C38.8913 53.3802 38.8851 53.4144 38.8838 53.4502H39.3604Z" fill="black"/>
<g id="grphics">
<path id="Vector 6" d="M13 49.5C20 52.5 22 51.5 25.5 51C27.3944 50.7294 33.5 49.5 35.5 49.5C40.5 49.5 42 50.5 44 51.5" stroke="#C51015" stroke-width="0.2"/>
<circle id="Ellipse 4" cx="20.5" cy="50.5" r="0.5" fill="#C51015"/>
<circle id="Ellipse 5" cx="34.5" cy="50.5" r="0.5" fill="#C51015"/>
</g>
</g>
</g>
</svg>
